{
  "accessors": [
    {
      "bufferView": 1,
      "componentType": 5126,
      "count": 55181,
      "max": [
        1.0,
        1.0,
        1.0
      ],
      "min": [
        -1.0,
        -1.0,
        -1.0
      ],
      "type": "VEC3"
    },
    {
      "bufferView": 1,
      "byteOffset": 662172,
      "componentType": 5126,
      "count": 55181,
      "max": [
        1.0,
        1.0,
        1.0
      ],
      "min": [
        -1.0,
        -1.0,
        -1.0
      ],
      "type": "VEC3"
    },
    {
      "bufferView": 0,
      "componentType": 5125,
      "count": 327168,
      "type": "SCALAR"
    },
    {
      "bufferView": 1,
      "byteOffset": 1324344,
      "componentType": 5126,
      "count": 27573,
      "max": [
        0.9953299760818481,
        0.9953299760818481,
        0.9953299760818481
      ],
      "min": [
        -0.9953299760818481,
        -0.9953299760818481,
        -0.9953299760818481
      ],
      "type": "VEC3"
    },
    {
      "bufferView": 1,
      "byteOffset": 1655220,
      "componentType": 5126,
      "count": 27573,
      "max": [
        1.0,
        1.0,
        1.0
      ],
      "min": [
        -1.0,
        -1.0,
        -1.0
      ],
      "type": "VEC3"
    },
    {
      "bufferView": 0,
      "byteOffset": 1308672,
      "componentType": 5125,
      "count": 161280,
      "type": "SCALAR"
    },
    {
      "bufferView": 1,
      "byteOffset": 1986096,
      "componentType": 5126,
      "count": 55181,
      "max": [
        1.0,
        1.0,
        1.0
      ],
      "min": [
        -1.0,
        -1.0,
        -1.0
      ],
      "type": "VEC3"
    },
    {
      "bufferView": 1,
      "byteOffset": 2648268,
      "componentType": 5126,
      "count": 55181,
      "max": [
        1.0,
        1.0,
        1.0
      ],
      "min": [
        -1.0,
        -1.0,
        -1.0
      ],
      "type": "VEC3"
    },
    {
      "bufferView": 0,
      "byteOffset": 1953792,
      "componentType": 5125,
      "count": 327168,
      "type": "SCALAR"
    },
    {
      "bufferView": 1,
      "byteOffset": 3310440,
      "componentType": 5126,
      "count": 27573,
      "max": [
        0.9953299760818481,
        0.9953299760818481,
        0.9953299760818481
      ],
      "min": [
        -0.9953299760818481,
        -0.9953299760818481,
        -0.9953299760818481
      ],
      "type": "VEC3"
    },
    {
      "bufferView": 1,
      "byteOffset": 3641316,
      "componentType": 5126,
      "count": 27573,
      "max": [
        1.0,
        1.0,
        1.0
      ],
      "min": [
        -1.0,
        -1.0,
        -1.0
      ],
      "type": "VEC3"
    },
    {
      "bufferView": 0,
      "byteOffset": 3262464,
      "componentType": 5125,
      "count": 161280,
      "type": "SCALAR"
    },
    {
      "bufferView": 1,
      "byteOffset": 3972192,
      "componentType": 5126,
      "count": 4,
      "max": [
        1.0,
        1.0,
        0.0
      ],
      "min": [
        -1.0,
        -1.0,
        0.0
      ],
      "type": "VEC3"
    },
    {
      "bufferView": 1,
      "byteOffset": 3972240,
      "componentType": 5126,
      "count": 4,
      "max": [
        0.0,
        0.0,
        1.0
      ],
      "min": [
        0.0,
        0.0,
        1.0
      ],
      "type": "VEC3"
    },
    {
      "bufferView": 0,
      "byteOffset": 3907584,
      "componentType": 5125,
      "count": 6,
      "type": "SCALAR"
    }
  ],
  "asset": {
    "extras": {
      "author": "Omer Bhatti (https://sketchfab.com/OmerBhatti)",
      "license": "CC-BY-4.0 (http://creativecommons.org/licenses/by/4.0/)",
      "source": "https://sketchfab.com/3d-models/dices-a96b6bcb9e844b318ce6a632b60a339a",
      "title": "Dices"
    },
    "generator": "Sketchfab-12.67.0",
    "version": "2.0"
  },
  "bufferViews": [
    {
      "buffer": 0,
      "byteLength": 3907608,
      "name": "floatBufferViews",
      "target": 34963
    },
    {
      "buffer": 0,
      "byteLength": 3972288,
      "byteOffset": 3907608,
      "byteStride": 12,
      "name": "floatBufferViews",
      "target": 34962
    }
  ],
  "buffers": [
    {
      "byteLength": 7879896,
      "uri": "scene.bin"
    }
  ],
  "extensionsUsed": [
    "KHR_materials_clearcoat"
  ],
  "materials": [
    {
      "alphaMode": "BLEND",
      "doubleSided": true,
      "name": "Material.003",
      "pbrMetallicRoughness": {
        "baseColorFactor": [
          0.0,
          0.0,
          0.0,
          0.0
        ],
        "metallicFactor": 0.0,
        "roughnessFactor": 0.5715392604018703
      }
    },
    {
      "doubleSided": true,
      "extensions": {
        "KHR_materials_clearcoat": {
          "clearcoatFactor": 1.0,
          "clearcoatRoughnessFactor": 0.04
        }
      },
      "name": "Material",
      "pbrMetallicRoughness": {
        "metallicFactor": 0.0
      }
    },
    {
      "doubleSided": true,
      "name": "Material.001",
      "pbrMetallicRoughness": {
        "baseColorFactor": [
          0.0,
          0.0,
          0.0,
          1.0
        ],
        "metallicFactor": 0.23820592706853694,
        "roughnessFactor": 0.20000000298023224
      }
    }
  ],
  "meshes": [
    {
      "name": "Cube_0",
      "primitives": [
        {
          "attributes": {
            "NORMAL": 1,
            "POSITION": 0
          },
          "indices": 2,
          "material": 1,
          "mode": 4
        }
      ]
    },
    {
      "name": "Cube_1",
      "primitives": [
        {
          "attributes": {
            "NORMAL": 4,
            "POSITION": 3
          },
          "indices": 5,
          "material": 2,
          "mode": 4
        }
      ]
    },
    {
      "name": "Cube.001_0",
      "primitives": [
        {
          "attributes": {
            "NORMAL": 7,
            "POSITION": 6
          },
          "indices": 8,
          "material": 1,
          "mode": 4
        }
      ]
    },
    {
      "name": "Cube.001_1",
      "primitives": [
        {
          "attributes": {
            "NORMAL": 10,
            "POSITION": 9
          },
          "indices": 11,
          "material": 2,
          "mode": 4
        }
      ]
    },
    {
      "name": "Plane_0",
      "primitives": [
        {
          "attributes": {
            "NORMAL": 13,
            "POSITION": 12
          },
          "indices": 14,
          "material": 0,
          "mode": 4
        }
      ]
    }
  ],
  "nodes": [
    {
      "children": [
        1
      ],
      "matrix": [
        1.0,
        0.0,
        0.0,
        0.0,
        0.0,
        2.220446049250313e-16,
        -1.0,
        0.0,
        0.0,
        1.0,
        2.220446049250313e-16,
        0.0,
        0.0,
        0.0,
        0.0,
        1.0
      ],
      "name": "Sketchfab_model"
    },
    {
      "children": [
        2,
        4,
        7,
        10
      ],
      "name": "Root"
    },
    {
      "children": [
        3
      ],
      "matrix": [
        0.21864000000000003,
        0.054820000000000015,
        0.006480000000000002,
        0.0,
        -0.04993000000000001,
        0.18509000000000003,
        0.11874000000000003,
        0.0,
        0.02355000000000001,
        -0.11657000000000002,
        0.19160000000000002,
        0.0,
        1.26914,
        -3.29528,
        5.8902,
        1.0
      ],
      "name": "Lamp"
    },
    {
      "name": "Lamp"
    },
    {
      "children": [
        5,
        6
      ],
      "matrix": [
        0.3088600000000001,
        0.031580000000000004,
        0.060170000000000015,
        0.0,
        -0.04243000000000001,
        0.30834000000000006,
        0.05600000000000001,
        0.0,
        -0.05308000000000001,
        -0.06276000000000002,
        0.3053700000000001,
        0.0,
        0.53715,
        -1.1279899999999998,
        0.38604000000000005,
        1.0
      ],
      "name": "Cube"
    },
    {
      "mesh": 0,
      "name": "Cube_0"
    },
    {
      "mesh": 1,
      "name": "Cube_1"
    },
    {
      "children": [
        8,
        9
      ],
      "matrix": [
        -0.06752000000000002,
        -0.060170000000000015,
        -0.30303,
        0.0,
        -0.3088700000000001,
        0.020170000000000004,
        0.06482000000000002,
        0.0,
        0.007000000000000002,
        0.3098100000000001,
        -0.06308000000000001,
        0.0,
        1.2674599999999998,
        -0.7231000000000001,
        0.47864,
        1.0
      ],
      "name": "Cube.001"
    },
    {
      "mesh": 2,
      "name": "Cube.001_0"
    },
    {
      "mesh": 3,
      "name": "Cube.001_1"
    },
    {
      "children": [
        11
      ],
      "matrix": [
        -5.94355,
        0.0,
        0.0,
        0.0,
        0.0,
        -5.94355,
        0.0,
        0.0,
        0.0,
        0.0,
        -5.94355,
        0.0,
        0.82446,
        -0.03543,
        0.03443000000000001,
        1.0
      ],
      "name": "Plane"
    },
    {
      "mesh": 4,
      "name": "Plane_0"
    }
  ],
  "scene": 0,
  "scenes": [
    {
      "name": "Sketchfab_Scene",
      "nodes": [
        0
      ]
    }
  ]
}
