<svg width="28" height="28" viewBox="0 0 28 28" fill="none" xmlns="http://www.w3.org/2000/svg">
<g clip-path="url(#clip0_4352_1263)">
<path fill-rule="evenodd" clip-rule="evenodd" d="M14 28C21.732 28 28 21.732 28 14C28 6.26801 21.732 0 14 0C6.26801 0 0 6.26801 0 14C0 21.732 6.26801 28 14 28Z" fill="#79FF39"/>
<path fill-rule="evenodd" clip-rule="evenodd" d="M14 5.08667L17.556 10.632L14 16.1933L10.444 10.632L14 5.08667Z" fill="black"/>
<path d="M25.2466 14.0038C25.2466 14.0025 25.2466 14.0012 25.2466 14H25.2465C25.244 13.7058 25.0048 13.468 24.71 13.468C24.4151 13.468 24.1759 13.7058 24.1734 14H24.1733C24.1733 19.6186 19.6185 24.1733 14 24.1733C8.38139 24.1733 3.82663 19.6186 3.82663 14H3.82654C3.82402 13.7058 3.5848 13.468 3.28996 13.468C2.99512 13.468 2.75591 13.7058 2.75339 14H2.7533C2.7533 14.0012 2.7533 14.0025 2.7533 14.0038C2.7533 14.004 2.7533 14.0044 2.7533 14.0047C2.7533 14.0052 2.7533 14.0057 2.7533 14.0063C2.75666 20.2147 7.79068 25.2467 14 25.2467C20.2092 25.2467 25.2433 20.2147 25.2466 14.0063C25.2466 14.0057 25.2466 14.0052 25.2466 14.0047C25.2466 14.0044 25.2466 14.004 25.2466 14.0038Z" fill="black"/>
</g>
<defs>
<clipPath id="clip0_4352_1263">
<rect width="28" height="28" fill="white"/>
</clipPath>
</defs>
</svg>
